<svg width="73" height="66" viewBox="0 0 73 66" fill="none" xmlns="http://www.w3.org/2000/svg">
<path d="M25.8513 8.30346C24.7059 5.6873 24.6399 2.34442 24.75 1C36.468 2.48249 41.233 14.4078 42.1507 20.1852C48.208 19.5312 51.4018 23.4554 51.9524 25.1995C52.393 26.5948 53.1272 28.4697 54.1551 29.4508C54.4488 29.7052 54.8599 31.8272 54.1551 33.9201C53.4502 36.013 52.6132 37.4384 50.6309 37.8443C49.5663 38.0623 47.5472 38.6074 47.9877 39.0434C48.5384 39.5884 47.6573 43.9487 47.4371 44.0577C47.2609 44.1449 46.1889 46.7102 45.675 47.982C44.7058 51.5574 41.6001 54.268 40.1684 55.1764C39.816 57.8798 40.8292 60.2271 41.3798 61.0628C43.0318 61.0628 44.5736 63.679 43.5825 64.442C42.5913 65.2051 38.9569 64.442 38.2962 64.442C37.6354 64.442 36.8644 62.9159 36.0935 62.5889C35.4768 62.3273 35.1023 59.8637 34.9922 58.6647C34.5517 58.0542 34.0744 57.9743 33.8909 58.0106C33.0098 59.3187 30.9541 60.2236 30.0363 60.5126M40.6089 20.8393C40.1684 21.0936 39.2213 21.6895 38.9569 22.0383C38.6265 22.4744 36.534 10.5926 17.9218 7.10439C18.3991 12.0097 22.7456 22.4962 36.3138 25.1995C35.7264 25.8536 34.5076 27.4015 34.3314 28.3607C34.1112 29.5598 32.8997 29.8868 32.0187 29.8868C31.1376 29.8868 19.2434 28.9058 10.8734 37.8443C5.96397 43.0873 5.56978 50.3305 6.37451 55.6125M7.56949 60.4088C7.11894 59.1969 6.66734 57.5345 6.37451 55.6125M8.6708 62.2619C8.87167 62.413 9.13549 62.5982 9.44172 62.7963M27.7235 60.4088C28.5896 60.4088 29.3569 60.4456 30.0363 60.5126M30.0363 60.5126C35.3183 61.0335 35.285 63.3796 34.9922 64.442C34.6618 65.6411 15.3888 64.551 13.4065 64.442C12.1677 64.3739 10.5346 63.5032 9.44172 62.7963M6.37451 55.6125C5.9652 54.9584 4.75013 53.7375 3.16423 54.0864C2.79713 54.0864 1.99684 54.0864 1.73253 54.0864C1.40213 54.0864 1.62239 58.7633 3.16423 60.5126C4.70607 62.2619 7.45935 63.0036 9.44172 62.7963" stroke="black" stroke-width="2" stroke-linecap="round" stroke-linejoin="round"/>
<path d="M56.1827 32.2265C55.6372 33.0969 54.7182 33.7642 54.0147 33.7642M44.2758 61.3545C45.8586 61.4415 56.1251 62.3119 56.3889 61.3545C56.6226 60.5062 56.6493 58.633 52.4319 58.2171M50.5853 58.1342C51.2768 58.1342 51.8894 58.1636 52.4319 58.2171M52.4319 58.2171C53.1647 57.9864 54.8061 57.2638 55.5096 56.2194C55.6561 56.1904 56.0372 56.2542 56.3889 56.7416C56.4768 57.699 56.7758 59.666 57.2682 59.8749C57.8838 60.136 58.4993 61.3545 59.0269 61.3545C59.5545 61.3545 62.4563 61.9637 63.2477 61.3545C64.0391 60.7452 62.808 58.6564 61.489 58.6564C61.0494 57.9891 60.2404 56.1149 60.5218 53.9565C61.6649 53.2312 64.1446 51.0669 64.9184 48.2121C65.3288 47.1967 66.1847 45.1485 66.3253 45.0789C66.4027 45.0406 66.5823 44.3451 66.7216 43.5412M60.8735 30.3988C61.0315 30.834 60.8735 32.0235 60.8735 32.8939C60.8735 33.7642 60.0821 41.5104 60.0821 42.2937C60.0821 43.077 59.0269 44.8177 57.9717 44.2955C56.9165 43.7733 55.8613 37.9419 55.8613 35.2438C55.8613 32.5457 57.0667 28.5434 57.4262 28.0488C57.848 27.4685 57.9717 26.9174 59.009 26.5403C59.6693 26.3002 60.5511 26.3662 60.8735 26.5403C60.9907 26.385 61.4011 26.0632 62.1045 26.0181C66.9409 25.4959 69.4909 28.6291 69.9306 30.0217C70.2823 31.1358 70.8686 32.6328 71.6893 33.4161C71.9238 33.6192 72.252 35.3135 71.6893 36.9846C71.1265 38.6556 70.4582 39.7937 68.8754 40.1178C68.0254 40.2919 66.4133 40.7271 66.765 41.0752C67.0112 41.3189 66.899 42.5179 66.7216 43.5412M68.242 40.2645C68.5177 40.9608 69.1008 42.7578 68.8754 43.106C68.5937 43.5412 68.5058 44.0634 67.8903 44.0634C67.2747 44.0634 66.6782 43.8038 66.7216 43.5412" stroke="black" stroke-width="2" stroke-linecap="round" stroke-linejoin="round"/>
</svg>
