<?xml version="1.0" encoding="UTF-8" standalone="no"?>
<!DOCTYPE svg PUBLIC "-//W3C//DTD SVG 1.1//EN" "http://www.w3.org/Graphics/SVG/1.1/DTD/svg11.dtd">
<svg width="100%" height="100%" viewBox="0 0 87 86" version="1.1" xmlns="http://www.w3.org/2000/svg" xmlns:xlink="http://www.w3.org/1999/xlink" xml:space="preserve" xmlns:serif="http://www.serif.com/" style="fill-rule:evenodd;clip-rule:evenodd;stroke-linejoin:round;stroke-miterlimit:2;">
    <g transform="matrix(1,0,0,1,-7,-7)">
        <path d="M19,7C12.396,7 7,12.396 7,19C7,25.604 12.396,31 19,31C25.604,31 31,25.604 31,19C31,12.396 25.604,7 19,7ZM19,11C23.442,11 27,14.558 27,19C27,23.442 23.442,27 19,27C14.558,27 11,23.442 11,19C11,14.558 14.558,11 19,11ZM71,33C64.605,33 60.259,35.719 57,38.844L57,37C57,35.953 56.047,35 55,35L39,35C37.953,35 37,35.953 37,37L37,91C37,92.047 37.953,93 39,93L56,93C57.047,93 58,92.047 58,91L58,61C58,58.469 58.798,56.07 59.969,54.438C61.14,52.805 62.555,52 64,52L66,52C67.445,52 68.86,52.805 70.031,54.438C71.202,56.07 72,58.469 72,61L72,91C72,92.047 72.953,93 74,93L91,93C92.047,93 93,92.047 93,91L93,80C93.015,78.943 92.057,77.972 91,77.972C89.943,77.972 88.985,78.943 89,80L89,89L76,89L76,61C76,57.659 75.002,54.524 73.281,52.125C71.56,49.726 68.987,48 66,48L64,48C61.013,48 58.44,49.726 56.719,52.125C54.998,54.524 54,57.659 54,61L54,73C53.611,73 53.188,73 52.813,73C51.765,73.049 50.857,74.046 50.906,75.094C50.955,76.141 51.953,77.049 53,77L54,77L54,81C53.611,81 53.188,81 52.813,81C51.765,81.049 50.857,82.046 50.906,83.094C50.955,84.141 51.953,85.049 53,85L54,85L54,89L41,89L41,39L53,39L53,44C53,44.823 53.562,45.616 54.338,45.888C55.114,46.161 56.049,45.893 56.563,45.25C59.92,41.064 63.498,37 71,37C78.174,37 82.455,38.844 85.125,41.969C87.795,45.093 89,49.846 89,56L89,72C88.985,73.057 89.943,74.028 91,74.028C92.057,74.028 93.015,73.057 93,72L93,56C93,49.333 91.75,43.545 88.188,39.375C84.625,35.205 78.897,33 71,33ZM10.813,35C9.829,35.093 8.996,36.012 9,37L9,91C9,92.047 9.953,93 11,93L28,93C29.047,93 30,92.047 30,91L30,37C30,35.953 29.047,35 28,35C22.277,35 16.522,35 10.813,35ZM13,39L26,39L26,73C25.611,73 25.188,73 24.813,73C23.765,73.049 22.857,74.046 22.906,75.094C22.955,76.141 23.953,77.049 25,77L26,77L26,81C25.611,81 25.188,81 24.813,81C23.765,81.049 22.857,82.046 22.906,83.094C22.955,84.141 23.953,85.049 25,85L26,85L26,89L13,89L13,39Z" style="fill-rule:nonzero;"/>
    </g>
</svg>
