<?xml version="1.0" encoding="UTF-8" standalone="no"?>
<!DOCTYPE svg PUBLIC "-//W3C//DTD SVG 1.1//EN" "http://www.w3.org/Graphics/SVG/1.1/DTD/svg11.dtd">
<svg width="100%" height="100%" viewBox="0 0 68 81" version="1.1" xmlns="http://www.w3.org/2000/svg" xmlns:xlink="http://www.w3.org/1999/xlink" xml:space="preserve" xmlns:serif="http://www.serif.com/" style="fill-rule:evenodd;clip-rule:evenodd;stroke-linejoin:round;stroke-miterlimit:2;">
    <g transform="matrix(1,0,0,1,-16.12,-9.82)">
        <path d="M71.38,9.82L28.62,9.82C21.765,9.825 16.125,15.465 16.12,22.32L16.12,77.68C16.125,84.535 21.765,90.175 28.62,90.18L71.38,90.18C78.235,90.175 83.875,84.535 83.88,77.68L83.88,22.32C83.875,15.465 78.235,9.825 71.38,9.82ZM38.17,21C41.675,21 44.56,23.885 44.56,27.39C44.56,30.895 41.675,33.78 38.17,33.78C34.665,33.78 31.78,30.895 31.78,27.39C31.785,23.887 34.667,21.005 38.17,21ZM27,45.47C27.005,40.041 31.471,35.575 36.9,35.57L39.43,35.57C44.859,35.575 49.325,40.041 49.33,45.47L49.33,45.93C49.33,46.347 48.987,46.69 48.57,46.69L27.77,46.69C27.353,46.69 27.01,46.347 27.01,45.93L27,45.47ZM72.65,75.19L28.4,75.19C27.029,75.19 25.9,74.061 25.9,72.69C25.9,71.319 27.029,70.19 28.4,70.19L72.65,70.19C74.021,70.19 75.15,71.319 75.15,72.69C75.15,74.061 74.021,75.19 72.65,75.19ZM72.65,63.19L28.4,63.19C27.029,63.19 25.9,62.061 25.9,60.69C25.9,59.319 27.029,58.19 28.4,58.19L72.65,58.19C74.021,58.19 75.15,59.319 75.15,60.69C75.15,62.061 74.021,63.19 72.65,63.19ZM72.65,45.19L55.4,45.19C54.029,45.19 52.9,44.061 52.9,42.69C52.9,41.319 54.029,40.19 55.4,40.19L72.65,40.19C74.021,40.19 75.15,41.319 75.15,42.69C75.15,44.061 74.021,45.19 72.65,45.19ZM72.65,33.19L55.4,33.19C54.029,33.19 52.9,32.061 52.9,30.69C52.9,29.319 54.029,28.19 55.4,28.19L72.65,28.19C74.021,28.19 75.15,29.319 75.15,30.69C75.15,32.061 74.021,33.19 72.65,33.19Z" style="fill-rule:nonzero;"/>
    </g>
</svg>
